<svg width="15" height="15" viewBox="0 0 15 15" fill="none" xmlns="http://www.w3.org/2000/svg">
<path d="M8.72274 9.05176C9.16542 8.90867 9.73219 9.99638 10.3355 10.4127C10.7884 10.728 11.1352 10.6599 11.1352 10.6599L12.7434 10.6368C12.7434 10.6368 13.5839 10.5849 13.1866 9.9172C13.1537 9.86163 12.9536 9.4222 11.9896 8.51786C10.9815 7.57185 11.1181 7.72512 12.3318 6.08962C13.0713 5.09267 13.3671 4.48376 13.2745 4.22445C13.1856 3.97486 12.6425 4.03969 12.6425 4.03969L10.8305 4.05219C10.6541 4.05265 10.5046 4.10729 10.4365 4.29066C10.4351 4.29252 10.1489 5.06211 9.76738 5.7164C8.96121 7.10046 8.63939 7.17408 8.50603 7.08749C8.19995 6.88699 8.27728 6.28317 8.27728 5.85392C8.27728 4.51246 8.47732 3.9531 7.88554 3.80863C7.68782 3.76047 7.54335 3.72898 7.03908 3.72435C6.39452 3.71463 5.84719 3.72435 5.53695 3.8767C5.33089 3.97996 5.17299 4.20639 5.26884 4.21935C5.38923 4.23556 5.65919 4.29344 5.80366 4.4907C5.98935 4.74631 5.98379 5.3191 5.98379 5.3191C5.98379 5.3191 6.08983 6.89857 5.73374 7.09444C5.48925 7.22872 5.15493 6.9546 4.43581 5.69788C4.06861 5.05516 3.79124 4.34484 3.79124 4.34484C3.79124 4.34484 3.73753 4.21287 3.64029 4.14063C3.52452 4.05497 3.36246 4.02765 3.36246 4.02765L1.64268 4.03876C1.64268 4.03876 1.3843 4.04617 1.28938 4.16008C1.2051 4.26103 1.28243 4.4694 1.28243 4.4694C1.28243 4.4694 2.62945 7.65566 4.15474 9.26059C5.55315 10.734 7.14234 10.6363 7.14234 10.6363H7.86239C7.86239 10.6363 8.07956 10.6113 8.19069 10.4918C8.29442 10.3807 8.28979 10.1719 8.28979 10.1719C8.28979 10.1719 8.27543 9.1953 8.72274 9.05176Z" fill="#030A1A"/>
</svg>
